<?xml version="1.0" standalone="no"?>
<svg viewBox="0 0 200 200" xmlns="http://www.w3.org/2000/svg">
  <path fill="#FFD6E8" d="M41.5,-66.7C55.3,-63.8,69.2,-55.9,75.9,-44C82.6,-32,82,-16,79.7,-1.3C77.4,13.4,73.4,26.7,67.4,39.8C61.4,52.8,53.3,65.6,41.7,70C30.2,74.4,15.1,70.4,2.3,66.4C-10.5,62.5,-21.1,58.6,-29.5,52.4C-37.9,46.2,-44.2,37.7,-50,28.5C-55.8,19.4,-61.1,9.7,-64.8,-2.1C-68.4,-13.9,-70.4,-27.9,-64.2,-36.3C-57.9,-44.7,-43.5,-47.5,-31.5,-51.5C-19.4,-55.5,-9.7,-60.5,2,-64.1C13.8,-67.6,27.6,-69.6,41.5,-66.7Z" transform="translate(100 100)" />
</svg>
